<svg xmlns="http://www.w3.org/2000/svg" style="display: none;">
  <symbol id="arrow-left" viewBox="0 0 512 512">
    <path d="M366.1 15.7l-206 206c-19 19-19 49.8 0 68.7l206 206"/>
  </symbol>
  <symbol id="arrow-right" viewBox="0 0 512 512">
    <path d="M145.9 496.4l206-206c19-19 19-49.8 0-68.7l-206-206"/>
  </symbol>
  <symbol id="play" viewBox="0 0 512 512">
    <path d="M374.2 231.8l-164.3-94.8c-18.7-10.8-42 2.7-42 24.2v189.7c0 21.6 23.3 35 42 24.2l164.3-94.8c18.6-10.8 18.6-37.8 0-48.5z"/>
  </symbol>
  <symbol id="pause" viewBox="0 0 512 512">
    <path d="M191 361h-10c-16.6 0-30-13.4-30-30v-150c0-16.6 13.4-30 30-30h10c16.6 0 30 13.4 30 30v150c0 16.6-13.4 30-30 30zm170-30v-150c0-16.6-13.4-30-30-30h-10c-16.6 0-30 13.4-30 30v150c0 16.6 13.4 30 30 30h10c16.6 0 30-13.4 30-30z"/>
  </symbol>
  <symbol id="stop" viewBox="0 0 512 512">
    <path d="M331 361h-150c-16.6 0-30-13.4-30-30v-150c0-16.6 13.4-30 30-30h150c16.6 0 30 13.4 30 30v150c0 16.6-13.4 30-30 30z"/>
  </symbol>

</svg>