<svg xmlns="http://www.w3.org/2000/svg" viewBox="0 0 512 512" enable-background="new 0 0 512 512"><style type="text/css">.st0{fill:none;stroke:#000000;stroke-miterlimit:10;}</style><path class="st0" d="M454.5 303.5v100.1c0 42.7-34.6 77.4-77.4 77.4h-268.7c-42.8 0-77.4-34.6-77.4-77.4v-268.7c0-42.7 34.6-77.4 77.4-77.4h100.1m231.7 93.1l-78.8-78.8m-180 180l78.8 78.8m-113.8 7.3c-7.1 17.4 10.3 34.8 27.7 27.7 38.3-15.6 86.1-35 86.1-35l211.7-211.7c12.1-12.1 12.1-31.8 0-44l-34.8-34.8c-12.1-12.1-31.8-12.1-44 0l-211.7 211.7s-19.5 47.8-35 86.1z"/></svg>