<svg xmlns="http://www.w3.org/2000/svg" viewBox="0 0 512 512" enable-background="new 0 0 512 512"><style type="text/css">.st0{fill:none;stroke:#000000;stroke-miterlimit:10;}</style><path class="st0" d="M296.8 256l175.7 175.7c11.3 11.3 11.3 29.6 0 40.8-11.3 11.3-29.6 11.3-40.8 0l-175.7-175.7-175.7 175.7c-11.3 11.3-29.6 11.3-40.8 0-11.3-11.3-11.3-29.6 0-40.8l175.7-175.7-175.7-175.7c-11.3-11.3-11.3-29.6 0-40.8 11.3-11.3 29.6-11.3 40.8 0l175.7 175.7 175.7-175.7c11.3-11.3 29.6-11.3 40.8 0 11.3 11.3 11.3 29.6 0 40.8l-175.7 175.7"/></svg>