<svg xmlns="http://www.w3.org/2000/svg" style="display: none;">
  <symbol id="arrow-left" viewBox="0 0 512 512">
    <path d="M366.1 15.7l-206 206c-19 19-19 49.8 0 68.7l206 206"/>
  </symbol>
  <symbol id="arrow-right" viewBox="0 0 512 512">
    <path d="M145.9 496.4l206-206c19-19 19-49.8 0-68.7l-206-206"/>
  </symbol>
  <symbol id="play" viewBox="0 0 512 512">
    <path d="M374.2 231.8l-164.3-94.8c-18.7-10.8-42 2.7-42 24.2v189.7c0 21.6 23.3 35 42 24.2l164.3-94.8c18.6-10.8 18.6-37.8 0-48.5z"/>
  </symbol>
  <symbol id="pause" viewBox="0 0 512 512">
    <path d="M191 361h-10c-16.6 0-30-13.4-30-30v-150c0-16.6 13.4-30 30-30h10c16.6 0 30 13.4 30 30v150c0 16.6-13.4 30-30 30zm170-30v-150c0-16.6-13.4-30-30-30h-10c-16.6 0-30 13.4-30 30v150c0 16.6 13.4 30 30 30h10c16.6 0 30-13.4 30-30z"/>
  </symbol>
  <symbol id="stop" viewBox="0 0 512 512">
    <path d="M331 361h-150c-16.6 0-30-13.4-30-30v-150c0-16.6 13.4-30 30-30h150c16.6 0 30 13.4 30 30v150c0 16.6-13.4 30-30 30z"/>
  </symbol>
  <symbol id="toggle" viewBox="0 0 512 512">
    <path d="M143.7 226.6l87.1-87.1c13.9-13.9 36.4-13.9 50.3 0l87.1 87.1m-224.5 58.8l87.1 87.1c13.9 13.9 36.4 13.9 50.3 0l87.1-87.1"/>
  </symbol>
  <symbol id="retry" viewBox="0 0 512 512">
    <path d="M255.2 100.3v-51c0-16.3-19.7-24.5-31.3-12.9l-69.8 69.8c-9.9 9.9-9.9 25.9 0 35.8l69.8 69.8c11.5 11.5 31.3 3.4 31.3-12.9v-51c80.9 0 146.7 68.3 142.6 150-3.7 72.8-62.4 131.6-135.3 135.3-74.7 3.8-138.2-50.8-148.5-122-1.7-11.8-11.7-20.6-23.6-20.6-14.4 0-25.6 12.7-23.6 27 13.6 94.5 97.2 167.1 196.1 163.2 98.8-3.9 178.6-83.7 182.5-182.5 4.3-108.1-83-198-190.2-198z"/>
  </symbol>
  <symbol id="tick" viewBox="0 0 512 512">
    <path d="M196.7 329.1l-116.4-116.4c-11.3-11.3-29.6-11.3-40.8 0-11.3 11.3-11.3 29.6 0 40.8l129.8 129.8c22.3 22.3 58.4 22.3 80.6 0l222.6-222.1c11.3-11.3 11.3-29.6 0-40.8-11.3-11.3-29.6-11.3-40.8 0l-175.7 175.7-33 33c-7.2 7.3-19 7.3-26.3 0z"/>
  </symbol>
  <symbol id="remove" viewBox="0 0 512 512">
    <path d="M296.8 256l175.7 175.7c11.3 11.3 11.3 29.6 0 40.8-11.3 11.3-29.6 11.3-40.8 0l-175.7-175.7-175.7 175.7c-11.3 11.3-29.6 11.3-40.8 0-11.3-11.3-11.3-29.6 0-40.8l175.7-175.7-175.7-175.7c-11.3-11.3-11.3-29.6 0-40.8 11.3-11.3 29.6-11.3 40.8 0l175.7 175.7 175.7-175.7c11.3-11.3 29.6-11.3 40.8 0 11.3 11.3 11.3 29.6 0 40.8l-175.7 175.7z"/>
  </symbol>
</svg>