<svg xmlns="http://www.w3.org/2000/svg" style="display: none;">

  <symbol id="arrow-left" viewBox="0 0 512 512">
    <path d="M366.1 15.7l-206 206c-19 19-19 49.8 0 68.7l206 206"/>
  </symbol>

  <symbol id="arrow-right" viewBox="0 0 512 512">
    <path d="M145.9 496.4l206-206c19-19 19-49.8 0-68.7l-206-206"/>
  </symbol>

  <symbol id="arrow-up" viewBox="0 0 512 512">
    <path d="M496.4 366.1l-206-206c-19-19-49.8-19-68.7 0l-206 206"/>
  </symbol>

  <symbol id="arrow-down" viewBox="0 0 512 512">
    <path d="M15.7 145.9l206 206c19 19 49.8 19 68.7 0l206-206"/>
  </symbol>

  <symbol id="play" viewBox="0 0 512 512">
    <path d="M374.2 231.8l-164.3-94.8c-18.7-10.8-42 2.7-42 24.2v189.7c0 21.6 23.3 35 42 24.2l164.3-94.8c18.6-10.8 18.6-37.8 0-48.5z"/>
  </symbol>

  <symbol id="pause" viewBox="0 0 512 512">
    <path d="M191 361h-10c-16.6 0-30-13.4-30-30v-150c0-16.6 13.4-30 30-30h10c16.6 0 30 13.4 30 30v150c0 16.6-13.4 30-30 30zm170-30v-150c0-16.6-13.4-30-30-30h-10c-16.6 0-30 13.4-30 30v150c0 16.6 13.4 30 30 30h10c16.6 0 30-13.4 30-30z"/>
  </symbol>

  <symbol id="stop" viewBox="0 0 512 512">
    <path d="M331 361h-150c-16.6 0-30-13.4-30-30v-150c0-16.6 13.4-30 30-30h150c16.6 0 30 13.4 30 30v150c0 16.6-13.4 30-30 30z"/>
  </symbol>

  <symbol id="toggle" viewBox="0 0 512 512">
    <path d="M143.7 226.6l87.1-87.1c13.9-13.9 36.4-13.9 50.3 0l87.1 87.1m-224.5 58.8l87.1 87.1c13.9 13.9 36.4 13.9 50.3 0l87.1-87.1"/>
  </symbol>

  <symbol id="retry" viewBox="0 0 512 512">
    <path d="M255.2 100.3v-51c0-16.3-19.7-24.5-31.3-12.9l-69.8 69.8c-9.9 9.9-9.9 25.9 0 35.8l69.8 69.8c11.5 11.5 31.3 3.4 31.3-12.9v-51c80.9 0 146.7 68.3 142.6 150-3.7 72.8-62.4 131.6-135.3 135.3-74.7 3.8-138.2-50.8-148.5-122-1.7-11.8-11.7-20.6-23.6-20.6-14.4 0-25.6 12.7-23.6 27 13.6 94.5 97.2 167.1 196.1 163.2 98.8-3.9 178.6-83.7 182.5-182.5 4.3-108.1-83-198-190.2-198z"/>
  </symbol>

  <symbol id="tick" viewBox="0 0 100 100">
    <polyline points="5,45 40,80 95,25"/>
    <!-- <polyline points="10,25 10,10 85,10"/> -->
    <!-- <polyline points="10,75 10,90 25,90"/> -->
    <!-- <polyline points="55,90 90,90 90,60"/> -->
  </symbol>

  <symbol id="minimize" viewBox="0 0 100 100">
    <circle cx="25" cy="25" r="15"/>
    <circle cx="75" cy="25" r="15"/>
    <circle cx="25" cy="75" r="15"/>
    <circle cx="75" cy="75" r="15"/>
  </symbol>

  <symbol id="maximize" viewBox="0 0 100 100">
    <rect x="10" y="10" width="80" height="80" rx="15" ry="15"/>
  </symbol>

  <symbol id="remove" viewBox="0 0 100 100">
    <line x1="10" y1="10" x2="90" y2="90"/>
    <line x1="10" y1="90" x2="90" y2="10"/>
  </symbol>

  <symbol id="preview" viewBox="0 0 100 100">
    <path d="M50 20a30 30 0 0 0-24.098 12.191 20 20 0 0 1 9.098-2.191 20 20 0 0 1 20 20 20 20 0 0 1-20 20 20 20 0 0 1-9.125-2.225 30 30 0 0 0 24.125 12.225 30 30 0 0 0 30-30 30 30 0 0 0-30-30zm0-20c-27.49 0-50 22.51-50 50s22.51 50 50 50c27.51 0 50-22.51 50-50s-22.49-50-50-50zm0 10c22.008 0 40 18.008 40 40s-17.992 40-40 40c-21.992 0-40-18.008-40-40s18.008-40 40-40z"/>

  <symbol id="passed" viewBox="0 0 100 100">
    <path d="M50 0c-27.569 0-50 22.431-50 50s22.431 50 50 50 50-22.431 50-50-22.431-50-50-50zm27.945 36.842l-31.955 31.704c-1.88 1.88-4.887 2.005-6.892.125l-16.917-15.414c-2.005-1.88-2.13-5.013-.376-7.018 1.88-2.005 5.013-2.13 7.018-.251l13.409 12.281 28.571-28.571c2.005-2.005 5.138-2.005 7.143 0s2.005 5.138 0 7.143z"/>
  </symbol>

  <symbol id="check" viewBox="0 0 100 100">
    <path d="M97.444 29.144l-54.278 53.852c-3.193 3.193-8.301 3.406-11.707.212l-28.735-26.182c-3.406-3.193-3.618-8.515-.639-11.921 3.193-3.406 8.515-3.618 11.921-.426l22.776 20.86 48.53-48.53c3.406-3.406 8.727-3.406 12.133 0 3.406 3.406 3.406 8.727 0 12.133z"/>
  </symbol>

  <symbol id="burger" viewBox="0 0 100 100">
    <path d="M10 0h80c5.54 0 10 4.46 10 10s-4.46 10-10 10h-80c-5.54 0-10-4.46-10-10s4.46-10 10-10zm0 40h80c5.54 0 10 4.46 10 10s-4.46 10-10 10h-80c-5.54 0-10-4.46-10-10s4.46-10 10-10zm0 40h80c5.54 0 10 4.46 10 10s-4.46 10-10 10h-80c-5.54 0-10-4.46-10-10s4.46-10 10-10z"/>
  </symbol>

  <symbol id="loginEdit" viewBox="0 0 100 100">
    <path d="M20.599 84.036a30 30 0 0 1 29.401-24.036 30 30 0 0 1 29.398 24.019m-11.898-41.519a17.5 17.5 0 0 1-17.5 17.5 17.5 17.5 0 0 1-17.5-17.5 17.5 17.5 0 0 1 17.5-17.5 17.5 17.5 0 0 1 17.5 17.5zm27.5 7.5a45 45 0 0 1-45 45 45 45 0 0 1-45-45 45 45 0 0 1 45-45 45 45 0 0 1 45 45z"/>

  <symbol id="passwordEdit" viewBox="0 0 100 100">
    <path d="M95.522 50a45.522 45.522 0 0 1-45.522 45.522 45.522 45.522 0 0 1-45.522-45.522 45.522 45.522 0 0 1 45.522-45.522 45.522 45.522 0 0 1 45.522 45.522zm-25.802-.064a13.898 13.896 0 0 1-19.655 0 13.898 13.896 0 0 1 0-19.652 13.898 13.896 0 0 1 19.655 0 13.898 13.896 0 0 1 0 19.652zm-19.72.064l-25.29 25.29m9.61-9.61l9.342 8.968m-3.272-15.037l7.252 7.023"/>
  </symbol>

  <symbol id="logoutEdit" viewBox="0 0 100 100">
    <path d="M50 5v45m13.073-43.059a45 45 0 0 1 31.927 43.059 45 45 0 0 1-45 45 45 45 0 0 1-45-45 45 45 0 0 1 32.015-43.086"/>
  </symbol>

  <symbol id="removeEdit" viewBox="0 0 100 100">
    <path d="M95 50a45 45 0 0 1-45 45 45 45 0 0 1-45-45 45 45 0 0 1 45-45 45 45 0 0 1 45 45zm-65-20l40 40m-40 0l40-40"/>
  </symbol>

  <symbol id="confirmEdit" viewBox="0 0 100 100">
    <path d="M20 50l20 20 40-40m15 20a45 45 0 0 1-45 45 45 45 0 0 1-45-45 45 45 0 0 1 45-45 45 45 0 0 1 45 45z"/>
  </symbol>

  <symbol id="cancelEdit" viewBox="0 0 100 100">
    <path d="M95 50a45 45 0 0 1-45 45 45 45 0 0 1-45-45 45 45 0 0 1 45-45 45 45 0 0 1 45 45zm-35 30l-30-30 30-30"/>
  </symbol>
</svg>