<svg xmlns="http://www.w3.org/2000/svg" style="display: none;">
  <!-- BASE -->
  <symbol id="logoBase" viewBox="0 0 512 612">
    <path d="M488.5 264c-12.6-31.8-31.5-60.6-55.7-84.8-24.1-24.1-53-43.1-84.7-55.7-29.3-11.6-60.5-17.5-92-17.5s-62.7 5.9-92 17.5c-31.8 12.6-60.6 31.5-84.7 55.7-24.1 24.1-43.1 53-55.7 84.7-11.7 29.4-17.7 60.6-17.7 92.1s6 62.7 17.6 92c12.5 31.8 31.5 60.6 55.7 84.7 24.1 24.2 53 43.1 84.7 55.7 29.3 11.6 60.5 17.5 92 17.5s62.7-5.9 92-17.5c31.8-12.6 60.6-31.5 84.7-55.7 24.1-24.2 43.1-53 55.7-84.8 11.6-29.3 17.5-60.5 17.5-92s-5.8-62.6-17.4-91.9zm-46.5 165.6c-10.1 25.4-25.2 48.5-44.6 67.8-19.3 19.3-42.4 34.5-67.8 44.5-23.4 9.3-48.4 14.1-73.6 14.1s-50.2-4.8-73.6-14.1c-25.4-10.1-48.5-25.2-67.8-44.5-19.3-19.3-34.5-42.4-44.6-67.8-9.2-23.4-14-48.4-14-73.6 0-25.2 4.8-50.2 14.1-73.6 10.1-25.4 25.2-48.5 44.6-67.8 19.3-19.3 42.4-34.5 67.8-44.5 23.5-9.3 48.4-14.1 73.6-14.1s50.2 4.7 73.6 14.1c25.4 10.1 48.5 25.2 67.8 44.5 19.3 19.3 34.5 42.4 44.6 67.8 9.3 23.4 14 48.4 14 73.6-.1 25.2-4.8 50.2-14.1 73.6z"/>
  </symbol>
  <!-- LETTER -->
  <symbol id="logoLetter" viewBox="0 0 512 612">
    <path d="M393.5 29.7c-.3-6.4-3.1-12.5-7.8-16.9-4.7-4.4-10.8-6.8-17.2-6.8h-225.1c-.8 0-1.7.1-2.5.2-6.5.7-12.4 3.8-16.6 8.9-4 4.9-6.1 11-5.8 17.3.3 6.4 3.1 12.5 7.8 16.9 4.7 4.4 10.8 6.8 17.2 6.8h225.1c.9 0 1.7-.1 2.5-.2 6.5-.7 12.4-3.8 16.6-8.9 4.1-4.9 6.1-11 5.8-17.3zm-137.5 176.3c-6.6 0-13 2.6-17.7 7.3-4.7 4.7-7.3 11-7.3 17.7v125c0 6.6 2.6 13 7.3 17.7 4.7 4.7 11.1 7.3 17.7 7.3s13-2.6 17.7-7.3c4.7-4.7 7.3-11.1 7.3-17.7v-125c0-6.6-2.6-13-7.3-17.7-4.7-4.7-11-7.3-17.7-7.3zm17.7 7.3c-4.7-4.7-11-7.3-17.7-7.3-6.6 0-13 2.6-17.7 7.3-4.7 4.7-7.3 11-7.3 17.7v125c0 6.6 2.6 13 7.3 17.7 4.7 4.7 11.1 7.3 17.7 7.3s13-2.6 17.7-7.3c4.7-4.7 7.3-11.1 7.3-17.7v-125c0-6.6-2.6-13-7.3-17.7zm0 0c-4.7-4.7-11-7.3-17.7-7.3-6.6 0-13 2.6-17.7 7.3-4.7 4.7-7.3 11-7.3 17.7v125c0 6.6 2.6 13 7.3 17.7 4.7 4.7 11.1 7.3 17.7 7.3s13-2.6 17.7-7.3c4.7-4.7 7.3-11.1 7.3-17.7v-125c0-6.6-2.6-13-7.3-17.7z"/>
  </symbol>
  <!-- SHADOW BASE -->
  <symbol id="logoBaseShadow" viewBox="0 0 512 612">
    <path d="M91.4 544.2c-4.2-3.7-8.3-7.5-12.2-11.4-24.2-24.1-43.1-53-55.7-84.7-11.5-29.4-17.5-60.6-17.5-92.1 0-31.5 6-62.7 17.6-92 12.6-31.8 31.5-60.6 55.7-84.7 24.1-24.1 53-43.1 84.7-55.7 29.3-11.6 60.5-17.5 92-17.5s62.7 5.9 92 17.5c31.8 12.6 60.6 31.5 84.7 55.7 3.9 3.9 7.7 8 11.4 12.2-21.4-18.8-46-33.7-72.5-44.3-29.3-11.6-60.5-17.5-92-17.5s-62.7 5.9-92 17.5c-31.8 12.6-60.6 31.5-84.7 55.7-24.1 24.1-43.1 53-55.7 84.7-11.6 29.3-17.6 60.5-17.6 92s6 62.7 17.6 92c10.5 26.6 25.5 51.1 44.2 72.6zm374.2-238.2c-10.1-25.4-25.2-48.5-44.6-67.8-3.9-4-8.1-7.7-12.3-11.3 14 16.6 25.3 35.3 33.3 55.5 9.3 23.4 14 48.4 14 73.6 0 25.2-4.7 50.2-14 73.6-10.1 25.4-25.2 48.5-44.6 67.8-19.3 19.3-42.4 34.5-67.8 44.5-23.4 9.3-48.4 14.1-73.6 14.1-25.2 0-50.2-4.8-73.6-14.1-20.2-8-38.9-19.3-55.5-33.2 3.6 4.2 7.4 8.4 11.3 12.3 19.3 19.3 42.4 34.5 67.8 44.5 23.4 9.3 48.4 14.1 73.6 14.1 25.2 0 50.2-4.8 73.6-14.1 25.4-10.1 48.5-25.2 67.8-44.5 19.3-19.3 34.5-42.4 44.6-67.8 9.3-23.4 14-48.4 14-73.6 0-25.2-4.7-50.2-14-73.6z"/>
  </symbol>
  <!-- SHADOW LETTER -->
  <symbol id="logoLetterShadow" viewBox="0 0 512 612">
    <path d="M142.1 55.9c-5.9-.3-11.4-2.7-15.8-6.8-4.7-4.4-7.5-10.4-7.8-16.9-.3-6.3 1.7-12.5 5.8-17.3 4.2-5 10.1-8.2 16.6-8.9l2.5-.2h225.1c6.4 0 12.5 2.4 17.2 6.8 4.7 4.4 7.5 10.4 7.8 16.8l-1.4-.1h-225.1c-.8 0-1.7.1-2.5.2-6.5.7-12.4 3.8-16.6 8.9-4 5-6.1 11.2-5.8 17.5zm112.5 323.7v-125c0-6.6 2.6-13 7.3-17.7 4.7-4.7 11-7.3 17.7-7.3.4 0 .9 0 1.3.1-.3-6.2-2.9-12-7.3-16.3-4.7-4.7-11-7.3-17.7-7.3-6.6 0-13 2.6-17.7 7.3-4.7 4.7-7.3 11-7.3 17.7v125c0 6.6 2.6 13 7.3 17.7 4.4 4.3 10.2 6.9 16.4 7.2.1-.5 0-1 0-1.4z"/>
  </symbol>
</svg>