<svg xmlns="http://www.w3.org/2000/svg" style="display: none;">
  <symbol id="clockCircle" viewBox="0 0 512 512">
    <path d="M478.3 300c0 98.5-79.8 178.3-178.3 178.3s-178.3-79.8-178.3-178.3 79.8-178.3 178.3-178.3 178.3 79.8 178.3 178.3zm-35 0c0-79-64.3-143.3-143.3-143.3-79 0-143.3 64.3-143.3 143.3s64.3 143.3 143.3 143.3c79 0 143.3-64.3 143.3-143.3z"/>
  </symbol>
  <symbol id="clockTop" viewBox="0 0 512 512">
    <path d="M400 69.2c0-9.7-7.8-17.5-17.5-17.5h-165c-9.7 0-17.5 7.8-17.5 17.5s7.8 17.5 17.5 17.5h165c9.7 0 17.5-7.8 17.5-17.5z"/>
  </symbol>
  <symbol id="clockOut" viewBox="0 0 512 512">
    <path d="M478.3 300c0 98.5-79.8 178.3-178.3 178.3s-178.3-79.8-178.3-178.3 79.8-178.3 178.3-178.3 178.3 79.8 178.3 178.3zm-35 0c0-79-64.3-143.3-143.3-143.3-79 0-143.3 64.3-143.3 143.3s64.3 143.3 143.3 143.3c79 0 143.3-64.3 143.3-143.3zm-43.3-230.8c0-9.7-7.8-17.5-17.5-17.5h-165c-9.7 0-17.5 7.8-17.5 17.5s7.8 17.5 17.5 17.5h165c9.7 0 17.5-7.8 17.5-17.5z"/>
  </symbol>
  <symbol id="handIn" viewBox="0 0 100 200">
    <path d="M50 162.5c-9.7 0-17.5-7.8-17.5-17.5v-90c0-9.7 7.8-17.5 17.5-17.5s17.5 7.8 17.5 17.5v90c0 9.7-7.8 17.5-17.5 17.5z"/>
  </symbol>
  <symbol id="handOut" viewBox="0 0 100 200">
    <path d="M50 162.5c-9.7 0-17.5-7.8-17.5-17.5v-90c0-9.7 7.8-17.5 17.5-17.5s17.5 7.8 17.5 17.5v90c0 9.7-7.8 17.5-17.5 17.5zm50-162.5h-100v200h100v-200z"/>
  </symbol>
</svg>