<svg xmlns="http://www.w3.org/2000/svg">

  <symbol id="arrow-left" viewBox="0 0 512 512">
    <path d="M366.1 15.7l-206 206c-19 19-19 49.8 0 68.7l206 206"/>
  </symbol>

  <symbol id="arrow-right" viewBox="0 0 512 512">
    <path d="M145.9 496.4l206-206c19-19 19-49.8 0-68.7l-206-206"/>
  </symbol>

  <symbol id="arrow-up" viewBox="0 0 512 512">
    <path d="M496.4 366.1l-206-206c-19-19-49.8-19-68.7 0l-206 206"/>
  </symbol>

  <symbol id="arrow-down" viewBox="0 0 512 512">
    <path d="M15.7 145.9l206 206c19 19 49.8 19 68.7 0l206-206"/>
  </symbol>

  <symbol id="play" viewBox="0 0 100 100">
    <path d="M95 50a45 45 0 0 1-45 45 45 45 0 0 1-45-45 45 45 0 0 1 45-45 45 45 0 0 1 45 45zm-23.542-4.44l-29.831-17.366c-3.39-1.973-7.627.493-7.627 4.44v34.731c0 3.947 4.237 6.413 7.627 4.44l29.831-17.366c3.39-1.973 3.39-6.907 0-8.88z"/>
  </symbol>

  <symbol id="pause" viewBox="0 0 100 100">
    <path d="M95 50a45 45 0 0 0-45-45 45 45 0 0 0-45 45 45 45 0 0 0 45 45 45 45 0 0 0 45-45zm-57.381-20h-1.905c-3.156 0-5.714 2.558-5.714 5.714v28.571c0 3.156 2.558 5.714 5.714 5.714h1.905c3.156 0 5.714-2.558 5.714-5.714v-28.571c0-3.156-2.558-5.714-5.714-5.714zm32.381 5.714v28.571c0 3.156-2.558 5.714-5.714 5.714h-1.905c-3.156 0-5.714-2.558-5.714-5.714v-28.571c0-3.156 2.558-5.714 5.714-5.714h1.905c3.156 0 5.714 2.558 5.714 5.714z"/>
  </symbol>

  <symbol id="stop" viewBox="0 0 100 100">
    <path d="M64.286 70c-9.694-.02-19.39.039-29.083-.029-3.698-.254-5.638-4.114-5.117-7.468.02-9.095-.039-18.192.029-27.286.254-3.698 4.114-5.638 7.468-5.117 9.095.02 18.192-.039 27.286.029 3.698.254 5.638 4.114 5.117 7.468-.02 9.095.039 18.192-.029 27.286-.236 2.835-2.825 5.174-5.671 5.117zm30.637-19.95c1.105 29.109-30.697 52.506-58.153 42.883-28.117-7.552-41.12-44.834-23.782-68.228 15.524-24.639 54.981-26.037 72.209-2.557 6.265 7.854 9.751 17.858 9.726 27.903z"/>
  </symbol>

  <symbol id="toggle" viewBox="0 0 100 100">
    <path d="M95 50a45 45 0 0 0-45-45 45 45 0 0 0-45 45 45 45 0 0 0 45 45 45 45 0 0 0 45-45zm-64.647 5.013l15.246 15.176c2.431 2.419 6.371 2.419 8.802 0l15.246-15.176m-39.295-10.238l15.246-15.175c2.431-2.419 6.371-2.419 8.802 0l15.246 15.175"/>
  </symbol>

  <symbol id="retry" viewBox="0 0 100 100">
    <path d="M48.614 47.391l-11.939-11.96 11.939-11.96m1.386 11.96h-13.325m-6.175 19.535c0 10.789 8.73 19.535 19.5 19.535s19.5-8.746 19.5-19.535-8.73-19.535-19.5-19.535m45 14.569a45 45 0 0 1-45 45 45 45 0 0 1-45-45 45 45 0 0 1 45-45 45 45 0 0 1 45 45z"/>
  </symbol>

  <symbol id="tick" viewBox="0 0 100 100">
    <polyline points="5,45 40,80 95,25"/>
    <!-- <polyline points="10,25 10,10 85,10"/>
    <polyline points="10,75 10,90 25,90"/>
    <polyline points="55,90 90,90 90,60"/> -->
  </symbol>

  <symbol id="drag" viewBox="0 0 100 100">
    <path d="M35 90h-25v-25m80 0v25h-25m0-80h25v25m-55-25h-25v25m0 55l80-80m-80 0l80 80"/>
  </symbol>

  <!-- <symbol id="minimize-circles" viewBox="0 0 100 100">
    <circle cx="25" cy="25" r="15"/>
    <circle cx="75" cy="25" r="15"/>
    <circle cx="25" cy="75" r="15"/>
    <circle cx="75" cy="75" r="15"/>
  </symbol> -->

  <symbol id="minimize" viewBox="0 0 100 100">
    <rect x="10" y="10" width="25" height="25"/>
    <rect x="65" y="10" width="25" height="25"/>
    <rect x="10" y="65" width="25" height="25"/>
    <rect x="65" y="65" width="25" height="25"/>
  </symbol>

  <symbol id="maximize" viewBox="0 0 100 100">
    <rect x="10" y="10" width="80" height="80" rx="15" ry="15"/>
  </symbol>

  <symbol id="remove" viewBox="0 0 100 100">
    <line x1="10" y1="10" x2="90" y2="90"/>
    <line x1="10" y1="90" x2="90" y2="10"/>
  </symbol>

  <symbol id="preview" viewBox="0 0 100 100">
    <path d="M50 20a30 30 0 0 0-24.098 12.191 20 20 0 0 1 9.098-2.191 20 20 0 0 1 20 20 20 20 0 0 1-20 20 20 20 0 0 1-9.125-2.225 30 30 0 0 0 24.125 12.225 30 30 0 0 0 30-30 30 30 0 0 0-30-30zm0-20c-27.49 0-50 22.51-50 50s22.51 50 50 50c27.51 0 50-22.51 50-50s-22.49-50-50-50zm0 10c22.008 0 40 18.008 40 40s-17.992 40-40 40c-21.992 0-40-18.008-40-40s18.008-40 40-40z"/>
  </symbol>

  <symbol id="passed" viewBox="0 0 100 100">
    <path d="M50 0c-27.569 0-50 22.431-50 50s22.431 50 50 50 50-22.431 50-50-22.431-50-50-50zm27.945 36.842l-31.955 31.704c-1.88 1.88-4.887 2.005-6.892.125l-16.917-15.414c-2.005-1.88-2.13-5.013-.376-7.018 1.88-2.005 5.013-2.13 7.018-.251l13.409 12.281 28.571-28.571c2.005-2.005 5.138-2.005 7.143 0s2.005 5.138 0 7.143z"/>
  </symbol>

  <symbol id="check" viewBox="0 0 100 100">
    <path d="M97.444 29.144l-54.278 53.852c-3.193 3.193-8.301 3.406-11.707.212l-28.735-26.182c-3.406-3.193-3.618-8.515-.639-11.921 3.193-3.406 8.515-3.618 11.921-.426l22.776 20.86 48.53-48.53c3.406-3.406 8.727-3.406 12.133 0 3.406 3.406 3.406 8.727 0 12.133z"/>
  </symbol>

  <symbol id="burger" viewBox="0 0 100 100">
    <path d="M10 0h80c5.54 0 10 4.46 10 10s-4.46 10-10 10h-80c-5.54 0-10-4.46-10-10s4.46-10 10-10zm0 40h80c5.54 0 10 4.46 10 10s-4.46 10-10 10h-80c-5.54 0-10-4.46-10-10s4.46-10 10-10zm0 40h80c5.54 0 10 4.46 10 10s-4.46 10-10 10h-80c-5.54 0-10-4.46-10-10s4.46-10 10-10z"/>
  </symbol>

  <symbol id="loginEdit" viewBox="0 0 100 100">
    <path d="M20.599 84.036a30 30 0 0 1 29.401-24.036 30 30 0 0 1 29.398 24.019m-11.898-41.519a17.5 17.5 0 0 1-17.5 17.5 17.5 17.5 0 0 1-17.5-17.5 17.5 17.5 0 0 1 17.5-17.5 17.5 17.5 0 0 1 17.5 17.5zm27.5 7.5a45 45 0 0 1-45 45 45 45 0 0 1-45-45 45 45 0 0 1 45-45 45 45 0 0 1 45 45z"/>
  </symbol>

  <symbol id="passwordEdit" viewBox="0 0 100 100">
    <path d="M95.522 50a45.522 45.522 0 0 1-45.522 45.522 45.522 45.522 0 0 1-45.522-45.522 45.522 45.522 0 0 1 45.522-45.522 45.522 45.522 0 0 1 45.522 45.522zm-25.802-.064a13.898 13.896 0 0 1-19.655 0 13.898 13.896 0 0 1 0-19.652 13.898 13.896 0 0 1 19.655 0 13.898 13.896 0 0 1 0 19.652zm-19.72.064l-25.29 25.29m9.61-9.61l9.342 8.968m-3.272-15.037l7.252 7.023"/>
  </symbol>

  <symbol id="logoutEdit" viewBox="0 0 100 100">
    <path d="M50 5v45m13.073-43.059a45 45 0 0 1 31.927 43.059 45 45 0 0 1-45 45 45 45 0 0 1-45-45 45 45 0 0 1 32.015-43.086"/>
  </symbol>

  <symbol id="removeEdit" viewBox="0 0 100 100">
    <path d="M95 50a45 45 0 0 1-45 45 45 45 0 0 1-45-45 45 45 0 0 1 45-45 45 45 0 0 1 45 45zm-65-20l40 40m-40 0l40-40"/>
  </symbol>

  <symbol id="confirmEdit" viewBox="0 0 100 100">
    <path d="M20 50l20 20 40-40m15 20a45 45 0 0 1-45 45 45 45 0 0 1-45-45 45 45 0 0 1 45-45 45 45 0 0 1 45 45z"/>
  </symbol>

  <symbol id="cancelEdit" viewBox="0 0 100 100">
    <path d="M95 50a45 45 0 0 1-45 45 45 45 0 0 1-45-45 45 45 0 0 1 45-45 45 45 0 0 1 45 45zm-35 30l-30-30 30-30"/>
  </symbol>
</svg>